<svg width="421" height="387" viewBox="0 0 421 387" fill="none" xmlns="http://www.w3.org/2000/svg">
<path d="M17.73 328.999L16.3966 330.999L0.896637 320.624L15.5425 298.686L30.5841 308.749L29.2508 310.77L16.5425 302.27L11.3341 310.061L22.6675 317.624L21.355 319.603L10.0216 312.04L4.5633 320.186L17.73 328.999Z" fill="#1D1D1B"/>
<path d="M50.767 342.127L37.7461 335.315L31.6836 340.065L29.1211 338.732L52.017 320.961L54.4545 322.232L52.892 351.19L50.2878 349.836L50.767 342.127ZM50.9128 339.627L51.8711 324.169L39.7253 333.773L50.9128 339.627Z" fill="#1D1D1B"/>
<path d="M81.9842 337.601L73.3801 334.164L74.2967 331.914L94.1092 339.851L93.1926 342.101L84.5884 338.643L75.6717 360.872L73.0676 359.83L81.9842 337.601Z" fill="#1D1D1B"/>
<path d="M132.462 378.436C129.905 377.863 127.733 376.79 125.941 375.207C124.15 373.624 122.889 371.707 122.17 369.457C121.446 367.197 121.363 364.822 121.92 362.332C122.472 359.874 123.556 357.78 125.17 356.04C126.795 354.29 128.759 353.092 131.066 352.436C133.368 351.769 135.801 351.723 138.358 352.29C140.259 352.707 141.946 353.415 143.42 354.415C144.889 355.415 146.056 356.655 146.92 358.124L144.795 359.457C143.238 356.988 140.931 355.405 137.879 354.707C135.837 354.264 133.879 354.322 132.004 354.874C130.129 355.431 128.535 356.41 127.233 357.811C125.941 359.217 125.066 360.915 124.608 362.915C124.16 364.931 124.222 366.853 124.795 368.686C125.379 370.519 126.4 372.098 127.858 373.415C129.316 374.723 131.066 375.592 133.108 376.04C136.191 376.733 138.952 376.269 141.4 374.644L142.733 376.769C141.342 377.728 139.759 378.353 137.983 378.644C136.202 378.936 134.363 378.863 132.462 378.436Z" fill="#1D1D1B"/>
<path d="M177.449 378.073L162.845 376.448L158.907 383.094L156.032 382.76L170.928 357.906L173.678 358.198L182.72 385.76L179.803 385.427L177.449 378.073ZM176.678 375.719L171.949 360.948L164.116 374.302L176.678 375.719Z" fill="#1D1D1B"/>
<path d="M207.827 374.121L202.432 379.559L202.411 386.496H199.619L199.702 360.121H202.494L202.432 376.059L217.973 360.163L221.182 360.184L209.723 372.1L221.89 386.559L218.577 386.538L207.827 374.121Z" fill="#1D1D1B"/>
<path d="M257.181 381.138L257.431 383.534L238.89 385.451L236.181 359.222L254.16 357.367L254.41 359.763L239.202 361.326L240.16 370.659L253.723 369.263L253.973 371.617L240.41 373.013L241.41 382.763L257.181 381.138Z" fill="#1D1D1B"/>
<path d="M290.714 350.368L293.401 349.638L299.61 372.784L313.881 368.951L314.506 371.284L297.547 375.847L290.714 350.368Z" fill="#1D1D1B"/>
<path d="M341.656 362.005C339.224 362.953 336.807 363.271 334.406 362.964C332.015 362.646 329.896 361.755 328.052 360.297C326.208 358.828 324.823 356.901 323.906 354.526C322.989 352.167 322.718 349.828 323.093 347.505C323.458 345.172 324.416 343.084 325.968 341.235C327.521 339.375 329.515 337.974 331.948 337.026C334.39 336.084 336.791 335.766 339.156 336.068C341.531 336.375 343.646 337.266 345.51 338.735C347.385 340.209 348.781 342.125 349.698 344.485C350.614 346.86 350.875 349.224 350.489 351.568C350.114 353.917 349.156 356.005 347.614 357.839C346.083 359.672 344.099 361.063 341.656 362.005ZM340.76 359.693C342.703 358.943 344.291 357.828 345.531 356.339C346.765 354.854 347.515 353.162 347.781 351.255C348.057 349.339 347.828 347.422 347.093 345.505C346.343 343.589 345.224 342.026 343.739 340.818C342.25 339.599 340.552 338.86 338.635 338.61C336.718 338.349 334.786 338.589 332.843 339.339C330.911 340.089 329.323 341.209 328.073 342.693C326.838 344.183 326.073 345.88 325.781 347.797C325.489 349.703 325.718 351.61 326.468 353.526C327.203 355.443 328.323 357.016 329.823 358.235C331.333 359.443 333.052 360.183 334.968 360.443C336.896 360.693 338.828 360.443 340.76 359.693Z" fill="#1D1D1B"/>
<path d="M378.621 315.135L380.58 343.927L378.163 345.198L355.517 327.323L358.205 325.906L377.83 341.468L376.121 316.448L378.621 315.135Z" fill="#1D1D1B"/>
<path d="M419.431 317.231L420.785 319.231L405.285 329.606L390.597 307.69L405.618 297.627L406.972 299.648L394.264 308.169L399.472 315.94L410.806 308.356L412.139 310.335L400.806 317.919L406.243 326.065L419.431 317.231Z" fill="#1D1D1B"/>
<mask id="mask0_11_115" style="mask-type:luminance" maskUnits="userSpaceOnUse" x="134" y="0" width="125" height="280">
<path d="M134.667 0.708313H258.667V280H134.667V0.708313Z" fill="white"/>
</mask>
<g mask="url(#mask0_11_115)">
<path d="M247.995 108.885C240.01 99.5468 228.297 95.1458 216.453 92.9323C216.583 90.5521 214.896 88.7031 212.828 87.6562C212.474 87.4739 212.089 87.3177 211.708 87.1614C222.495 74.6771 233.266 62.2187 244.057 49.7448C246.547 46.875 249.229 44.0677 251.432 40.9479C253.229 38.3854 254.599 35.401 254.396 32.1927C254.219 29.4739 253 26.7395 250.552 25.3698C247.698 23.776 243.604 24.5416 241.448 21.802C240.281 20.3229 240.594 18.5468 242.438 17.875C243.99 17.3125 245.677 17.3593 247.229 16.776C250.349 15.6041 252.818 13.0677 253.854 9.90622C254.036 9.36455 253.5 9.00517 253.026 9.07809C248.24 9.90622 243.964 6.67184 240.078 4.42705C238.099 3.28642 236.031 2.2083 233.781 1.66663C231.625 1.15101 229.401 1.12497 227.219 1.51038C222.833 2.29684 218.813 4.87497 216.401 8.65101C215.057 10.7812 214 13.5833 211.391 14.4635C210.313 14.8229 209.094 14.75 208.266 13.8958C207.589 13.2083 207.432 12.1979 207.391 11.276C207.302 9.2083 207.729 7.05205 207.031 5.05726C206.359 3.13017 204.688 1.89059 202.781 1.29163C198.599 -0.0364932 193.63 1.10934 189.719 2.74476C185.536 4.49997 181.786 7.25517 178.911 10.7604C177.469 12.5312 176.229 14.4635 175.286 16.5468C174.323 18.7239 173.74 21.0156 172.974 23.2604C172.208 25.5 171.172 27.75 169.219 29.2083C167.26 30.6666 164.786 31.1145 162.385 31.0937C156.896 31.0468 151.75 28.5156 146.24 28.6927C144.87 28.7343 143.547 28.9583 142.24 29.4062C141.792 29.5677 141.656 29.9739 141.839 30.401C145.609 39.2812 150.375 47.7656 156.026 55.625C161.661 63.5 168.141 70.7552 175.359 77.2396C178.885 80.427 182.615 83.3854 186.464 86.1718C185.833 86.4375 185.245 86.8021 184.771 87.3437C184.057 88.1718 183.719 89.2239 183.943 90.2812C173.354 90.8854 162.854 92.6771 153.573 98.0937C147.901 101.391 142.896 105.99 139.677 111.76C136.198 118.021 135.068 125.25 135.474 132.344C135.901 139.771 137.859 147.042 140.266 154.068C142.807 161.495 145.792 168.766 148.849 175.995C155.078 190.76 162.026 205.24 169.646 219.354C173.422 226.359 177.38 233.276 181.49 240.094C183.578 243.547 185.948 246.797 188.099 250.182C192.161 257.13 195.271 265.302 198.219 272.667C199.188 275.089 200.135 277.422 201.094 279.594C201.344 280.161 202.151 279.932 202.328 279.437C202.479 277.75 203.083 275.458 204.089 272.667C205.849 267.781 208.833 261.37 212.755 254.031C216.505 248.531 218.922 242.964 222.542 237.375C231.38 223.755 239.604 209.682 245.948 194.714C252.078 180.193 256.469 164.844 257.656 149.062C258.802 135.214 257.406 119.885 247.995 108.885ZM167.307 67.3177C160.807 60.2239 155.078 52.4635 150.271 44.1302C147.703 39.7343 145.438 35.1562 143.406 30.4843C148.74 29.0312 154.156 31.4739 159.438 32.1927C163.979 32.7968 168.995 32.2812 171.964 28.401C173.375 26.5364 174.141 24.2708 174.839 22.0468C175.557 19.7552 176.255 17.5156 177.422 15.4062C179.672 11.3593 183.042 7.97913 187.021 5.61455C190.885 3.34892 195.677 1.78122 200.193 2.16142C202.24 2.34371 204.599 3.06247 205.594 5.01559C206.557 6.92184 205.995 9.24997 206.109 11.2968C206.198 13.1562 206.849 15.0468 208.74 15.7604C210.828 16.5729 213.214 15.4739 214.625 13.9218C216.339 12.0364 217.214 9.54684 218.901 7.63538C220.406 5.93747 222.339 4.58851 224.453 3.73434C226.521 2.90101 228.75 2.49997 230.969 2.60934C233.354 2.72392 235.557 3.53122 237.651 4.60934C241.698 6.69788 245.521 9.88538 250.172 10.4687C250.844 10.5573 251.542 10.5573 252.219 10.4895C251.068 12.9791 248.865 14.9323 246.214 15.6927C243.854 16.3698 240.12 16.1458 239.443 19.2395C238.818 22.2031 241.896 24.3854 244.37 25.0104C246.036 25.4375 247.786 25.552 249.359 26.25C250.708 26.8489 251.745 27.9062 252.349 29.25C255.448 35.9843 248.708 42.3177 244.755 46.8958C239.354 53.1093 233.984 59.3489 228.583 65.5677C222.542 72.5468 216.516 79.5312 210.469 86.5312C210.443 86.5521 210.443 86.5937 210.427 86.6198C208.667 85.9896 206.828 85.5677 204.984 85.3177C202.266 84.9375 199.521 84.8906 196.802 84.9791C194.036 85.0937 191.224 85.2343 188.484 85.6354C188.396 85.651 188.307 85.6771 188.214 85.6771C180.615 80.3333 173.599 74.1614 167.307 67.3177ZM187.313 87.2708C188.667 86.8021 190.281 86.776 191.698 86.6666C194.578 86.4166 197.479 86.2396 200.375 86.3073C203.25 86.375 206.151 86.7083 208.922 87.5416C211.234 88.2343 215.328 89.651 215.146 92.6771C212.901 92.2968 210.651 91.9635 208.422 91.6927C206.917 91.5104 205.385 91.4062 203.885 91.2396C202.484 91.0833 201.12 90.6406 199.724 90.4583C196.87 90.0781 193.995 90.0312 191.135 90.0312C190.573 90.0312 185.406 90.3437 185.359 90.1875C184.932 88.8177 186.104 87.6979 187.313 87.2708ZM248.865 183.76C243.672 198.599 236.37 212.573 228.229 226C223.036 234.552 217.766 243.068 212.755 251.724C211.516 253.87 206.01 264.328 203.068 271.01C201.948 273.557 201.198 275.557 201.198 276.339C201.198 276.083 200.354 273.974 199.089 271.01C196.536 265.016 192.26 255.516 189.766 250.734C189.109 249.703 187.813 247.661 187.813 247.661C183.651 241.062 179.651 234.349 175.802 227.568C168.156 214.083 161.146 200.234 154.781 186.115C151.594 179 148.557 171.818 145.682 164.573C142.964 157.677 140.333 150.719 138.599 143.495C136.938 136.536 136.104 129.198 137.432 122.125C138.688 115.458 141.948 109.443 146.849 104.776C157.479 94.6562 172.547 92.0052 186.708 91.4687C189.359 91.3541 192.01 91.3541 194.646 91.5364C197.141 91.7187 199.594 92.2083 202.083 92.4323C206.828 92.8593 211.547 93.401 216.224 94.25C224.542 95.8021 232.745 98.4687 239.74 103.339C245.401 107.271 249.833 112.589 252.573 118.896C255.344 125.25 256.422 132.276 256.625 139.161C257.12 154.286 253.854 169.505 248.865 183.76Z" fill="black"/>
</g>
<path d="M184.641 95.3541C178.052 96.9062 172.323 101.344 169.219 107.339C168.812 108.099 169.984 108.776 170.385 108.01C173.333 102.312 178.755 98.0937 185 96.6354C185.833 96.4323 185.495 95.151 184.641 95.3541Z" fill="black"/>
<path d="M194.266 96.6562C184.932 105.297 180.141 118.318 181.135 130.932C181.427 134.495 182.167 138.042 183.38 141.411C183.677 142.219 184.979 141.859 184.687 141.052C180.464 129.422 182.125 116.068 188.62 105.615C190.443 102.651 192.672 99.9583 195.229 97.5937C195.859 97.0156 194.891 96.0677 194.266 96.6562Z" fill="black"/>
<path d="M203.141 100.786C203.208 99.9323 201.885 99.9323 201.797 100.786C201.411 105.365 201.479 109.964 202.042 114.542C202.13 115.396 203.479 115.396 203.391 114.542C202.849 109.964 202.755 105.365 203.141 100.786Z" fill="black"/>
<path d="M210.74 97.9583C210.292 97.2188 209.12 97.8906 209.573 98.6302C212.318 103.052 213.797 108.151 213.844 113.354C213.844 114.208 215.193 114.208 215.193 113.354C215.125 107.922 213.599 102.583 210.74 97.9583Z" fill="black"/>
<path d="M213.396 37.2239C207.391 48.5312 203.479 60.8333 201.797 73.4896C201.682 74.3437 203.026 74.3437 203.141 73.4896C204.802 61.0573 208.693 48.9583 214.563 37.8958C214.964 37.1354 213.797 36.4583 213.396 37.2239Z" fill="black"/>
<path d="M194.036 77.8229C187.656 71.2031 183.021 63.0104 180.641 54.1458C180.417 53.3177 179.115 53.6771 179.339 54.5052C181.786 63.5937 186.531 71.9896 193.073 78.7916C193.698 79.401 194.646 78.4531 194.036 77.8229Z" fill="black"/>
<path d="M197.594 73.6302C196.016 70.125 194.891 66.4219 194.198 62.651C194.036 61.8021 192.76 62.1563 192.891 63.0104C193.609 66.9167 194.802 70.6875 196.422 74.3229C196.781 75.0833 197.948 74.4115 197.594 73.6302Z" fill="black"/>
<path d="M215.818 64.5364C212.318 68.625 209.437 73.2031 207.276 78.1354C206.943 78.9218 208.089 79.5989 208.448 78.8125C210.542 73.9843 213.354 69.4791 216.766 65.4791C217.328 64.8333 216.385 63.8906 215.818 64.5364Z" fill="black"/>
<path d="M132.375 219.005C129.474 208.344 125.297 198.083 121.224 187.823C120.078 184.911 118.932 181.99 117.807 179.073C116.146 174.625 114.547 170.141 113.177 165.609C112.479 163.344 111.849 161.052 111.286 158.74C111.057 157.792 110.682 156.896 110.474 155.979C110.229 154.807 110.073 153.641 109.802 152.474C109.667 151.891 109.557 151.313 109.557 150.703C109.557 148.297 109.984 145.828 110.187 143.432C110.411 140.964 110.63 138.49 110.859 136.021C111.312 131.089 111.76 126.172 112.208 121.234C113.104 111.38 114.01 101.5 114.906 91.651C115.786 81.9375 116.771 72.2344 117.495 62.5156C118.208 52.9167 118.573 43.2656 117.807 33.6563C117.422 28.9167 116.771 24.2083 115.76 19.5625C115.13 16.6406 113.74 12.7604 110.187 12.6042C107.016 12.4688 105.286 15.7865 104.5 18.3698C103.937 20.276 103.76 22.276 103.51 24.2292C103.193 26.6302 102.922 29.0313 102.698 31.4323C100.698 51.0677 100.677 70.8906 101.687 90.5938C101.734 91.4219 101.776 92.2604 101.818 93.1094C102.359 102.938 103.151 112.745 104.073 122.552C104.521 127.453 105.016 132.37 105.531 137.26C105.781 139.703 106.052 142.151 106.318 144.599C106.568 146.797 107.083 149.089 106.547 151.26C106.25 152.453 105.599 153.526 105.083 154.651C101.016 163.516 97.3489 172.557 93.1875 181.385C88.3125 191.708 83.2083 201.943 78.6719 212.422C74.4427 222.214 70.8021 232.646 70.6614 243.469C70.5521 252.708 73.3177 261.755 79.026 269.073C84.2187 275.74 92.3802 277.849 100.833 279.089C109.083 280.292 117.422 280.047 124.031 274.885C131.583 268.984 134.62 260.589 135.656 251.365C136.844 240.505 135.229 229.505 132.375 219.005ZM103.578 99.1719C102.339 80 101.932 60.7708 103.24 41.599C103.552 36.8854 103.979 32.1927 104.521 27.5313C104.786 25.2188 105.016 22.8594 105.422 20.5469C105.693 18.9792 106.182 17.4063 107.016 16.0313C107.755 14.8438 108.927 13.7917 110.432 13.974C112.141 14.1719 113.156 15.7708 113.74 17.224C114.453 19.0208 114.776 21 115.109 22.901C115.536 25.1927 115.875 27.5052 116.146 29.8385C118.276 48.599 115.802 67.6146 114.099 86.3333C112.344 105.703 110.568 125.073 108.812 144.443C108.656 146.302 108.479 148.141 108.323 150.005C106.453 133.083 104.677 116.161 103.578 99.1719ZM82.625 271.161C76.2864 265.193 73.4271 258.141 72.3489 249.547C71.026 239.068 73.7448 228.604 77.4792 218.885C81.4583 208.589 86.5104 198.667 91.2552 188.677C94.9219 180.938 98.5885 173.193 102.229 165.469C97.1667 177.974 92.9427 190.833 89.6614 203.917C87.2552 213.521 85.0729 223.313 84.2187 233.182C83.4323 242.297 84.0364 251.677 87.5885 260.208C90.5833 267.391 95.7292 274.396 102.88 277.87C103.266 278.078 103.667 278.234 104.094 278.391C96.5417 277.87 87.9531 276.188 82.625 271.161ZM102.792 276.323C101.036 275.359 99.3958 274.146 97.9114 272.823C95.0521 270.266 92.6927 267.214 90.8281 263.844C81.6354 247.276 85.6354 227.219 89.6354 209.729C93.6146 192.38 99.2396 175.391 106.339 159.073C102.677 173.396 100.339 188.047 99.3542 202.818C98.2917 218.885 98.8333 235.073 100.969 251.026C102.156 259.979 103.865 268.87 106.068 277.625C104.927 277.38 103.823 276.885 102.792 276.323ZM107.625 251.609C107.51 259.875 107.375 268.156 107.193 276.411C103.422 261.13 101.146 245.505 100.427 229.771C99.7083 213.75 100.562 197.63 103.036 181.786C104.115 174.922 105.484 168.12 107.151 161.365C107.464 175.391 107.687 189.443 107.755 203.495C107.87 219.536 107.802 235.589 107.625 251.609ZM108.5 277.781C108.839 262.047 109.062 246.318 109.125 230.583C109.193 214.531 109.125 198.51 108.88 182.464C108.812 177.073 108.698 171.688 108.594 166.323C108.5 162.328 108.005 158.109 109.036 154.203C109.422 156.719 109.375 159.323 109.693 161.859C109.849 163.203 110.047 164.526 110.255 165.875C110.458 167.135 110.995 168.589 110.995 169.87C112.005 174.896 113.333 179.839 114.75 184.771C116.161 189.688 117.667 194.578 119.089 199.521C119.271 200.146 119.453 200.802 119.625 201.427C122.057 210.156 124.016 219.021 124.417 228.089C124.797 237.271 123.745 246.495 121.318 255.339C120.125 259.693 118.594 263.953 116.729 268.063C115.849 269.995 114.953 271.969 113.828 273.76C112.792 275.401 111.422 277.021 109.49 277.625C109.177 277.667 108.839 277.74 108.5 277.781ZM127.99 269.656C123.719 275.698 117.693 278.182 110.656 278.547C111.917 277.984 112.974 277.063 113.854 275.984C115.109 274.443 116.005 272.646 116.865 270.849C117.875 268.74 118.818 266.578 119.672 264.406C123.068 255.74 125.068 246.536 125.651 237.271C126.234 227.979 125.203 218.734 123.135 209.661C119.609 194.245 113.469 179.271 111.24 163.589C112.792 169.104 114.682 174.536 116.729 179.906C120.505 189.87 124.729 199.677 128.146 209.776C131.583 219.948 134.266 230.469 134.641 241.245C135.005 250.938 133.745 261.531 127.99 269.656Z" fill="black"/>
<path d="M111.042 18.9531C110.885 18.9062 110.771 18.9323 110.656 18.9531C110.432 18.6823 110.047 18.5937 109.76 18.9531C108.542 20.4792 107.828 22.276 107.557 24.2083C107.307 25.9792 107.219 28.2187 108.115 29.8594C108.969 31.3906 111.151 32.1042 112.391 30.599C112.948 29.9062 113.156 29.0312 113.286 28.1771C113.49 27.0573 113.583 25.8906 113.583 24.7396C113.583 22.6562 113.443 19.6719 111.042 18.9531ZM112.208 25.8229C112.161 26.8073 112.078 30.6667 110.229 30.0417C108.5 29.4583 108.682 26.5365 108.792 25.1042C108.927 23.3542 109.49 21.6042 110.547 20.1667C110.589 20.1875 110.63 20.2344 110.682 20.2344C111.693 20.5208 111.984 21.6719 112.094 22.5677C112.25 23.6667 112.276 24.7396 112.208 25.8229Z" fill="black"/>
<path d="M349.469 213.141C348.594 204.323 344.865 196.557 339.917 189.307C335.078 182.26 329.464 175.703 325.411 168.12C323.26 164.078 321.703 159.771 320.943 155.26C320.062 150.052 320.203 144.714 320.734 139.479C321.839 128.865 324.219 118.406 325.464 107.786C326.745 96.8594 327.417 85.8594 327.437 74.8594C327.458 69.4115 327.328 63.9531 327.031 58.5C326.76 53.2917 326.495 48.0417 325.682 42.901C325.193 39.6458 324.219 36.4167 322.714 33.5C321.974 32.0625 321.073 30.6927 320.021 29.4792C319.052 28.375 317.859 27.0781 316.443 26.6302C315.859 26.4479 315.302 26.25 314.693 26.2031C313.344 26.1094 312.062 26.6042 310.937 27.276C305.479 30.5573 302.682 37.0938 301.542 43.0833C300.552 48.1979 300.104 53.4479 299.63 58.6354C299.135 64.0677 298.797 69.5208 298.615 74.974C298.26 85.974 298.505 96.9948 299.406 107.969C300.26 118.604 302.255 129.151 302.953 139.813C303.292 145.068 303.25 150.406 302.193 155.594C301.271 160.083 299.562 164.328 297.25 168.302C292.953 175.729 287.062 182.057 281.984 188.927C276.766 195.974 272.766 203.604 271.552 212.38C270.312 221.448 271.802 230.74 274.99 239.266C277.422 245.776 280.901 251.839 285.016 257.427C289.13 263.016 293.87 268.13 298.885 272.932C300.104 274.099 301.385 275.182 302.599 276.323C303.786 277.469 305.25 278.302 306.714 279.063C307.115 279.286 307.542 279.49 307.995 279.62C308.937 279.87 309.948 279.734 310.87 279.396C313.141 278.521 315.12 276.885 316.964 275.339C319.01 273.604 320.964 271.792 322.922 269.953C327.953 265.219 332.698 260.141 336.75 254.531C340.026 249.995 342.859 245.099 345.016 239.938C348.547 231.479 350.37 222.229 349.469 213.141ZM340.724 245.802C339.016 248.917 337.062 251.927 334.922 254.776C331.328 259.625 327.187 264.068 322.833 268.224C320.63 270.307 318.359 272.328 316.062 274.302C314.849 275.339 313.568 276.385 312.104 277.021C310.964 277.51 309.589 278.344 308.307 278.276C305.766 278.161 303.359 275.224 301.656 273.656C292.797 265.417 284.615 256.193 279.172 245.307C275.036 237.042 272.5 227.844 272.542 218.573C272.589 209.599 275.375 201.266 280.25 193.797C284.839 186.771 290.594 180.62 295.38 173.734C297.677 170.453 299.719 167.021 301.245 163.318C303.068 158.938 304.036 154.313 304.375 149.604C305.115 139.479 303.135 129.406 301.917 119.391C300.646 108.734 299.943 97.9792 299.854 87.2292C299.766 76.4792 300.26 65.7292 301.359 55.0417C302.281 46.0625 302.755 34.3281 311.141 28.7604C317.391 24.6094 322.135 33.7188 323.531 38.526C325.078 43.8229 325.214 49.3854 325.568 54.8594C326.266 65.5938 326.38 76.3438 325.891 87.099C325.396 97.8229 324.312 108.552 322.625 119.172C321.052 129.135 318.714 139.125 319.073 149.266C319.255 153.979 320.042 158.672 321.703 163.089C323.099 166.839 325.031 170.344 327.187 173.708C331.734 180.755 337.26 187.109 341.583 194.307C346.187 201.99 348.661 210.385 348.365 219.359C348.026 228.583 345.151 237.698 340.724 245.802Z" fill="black"/>
<path d="M319.37 51.6354C319.073 49.099 318.13 43.2396 314.625 43.3698C311.052 43.5104 309.229 47.4323 308.599 50.3959C307.901 53.6302 307.854 57.7604 309.677 60.6563C311.391 63.3698 314.917 64.224 317.276 61.8229C319.771 59.3334 319.724 54.8854 319.37 51.6354ZM317.432 59.1771C316.964 60.3854 316.016 61.5313 314.719 61.8698C313.385 62.2031 312.062 61.5104 311.229 60.5209C309.432 58.3646 309.344 54.8438 309.656 52.1927C309.99 49.4792 311.115 44.7188 314.578 44.6511C314.646 44.6511 314.693 44.625 314.734 44.6094C316.781 45.5052 317.432 48.2448 317.818 50.2396C318.333 53.0729 318.516 56.4792 317.432 59.1771Z" fill="black"/>
<path d="M334.135 207.531C319.969 205.109 305.542 204.37 291.224 205.38C287.198 205.667 283.193 206.094 279.214 206.656C278.359 206.766 278.724 208.073 279.573 207.958C293.557 206.005 307.786 205.755 321.865 207.193C325.865 207.599 329.844 208.161 333.797 208.833C334.635 208.964 334.99 207.667 334.135 207.531Z" fill="black"/>
<path d="M214.167 250.417L213.411 251.682C205.354 250.979 201.885 248.573 189.177 251.245L188.651 249.927C203.198 246.865 205.688 249.646 214.167 250.417Z" fill="black"/>
<path d="M220.068 100.542C218.005 98.9479 215.755 97.5938 213.37 96.5469C212.589 96.2084 211.911 97.349 212.698 97.7084C220.833 101.281 227.245 108.328 230.161 116.703C230.995 119.099 231.557 121.568 231.781 124.104C231.849 124.958 233.198 124.958 233.13 124.104C232.25 114.839 227.401 106.198 220.068 100.542Z" fill="black"/>
<mask id="mask1_11_115" style="mask-type:luminance" maskUnits="userSpaceOnUse" x="272" y="366" width="8" height="11">
<path d="M272 366.667H280V376H272V366.667Z" fill="white"/>
</mask>
<g mask="url(#mask1_11_115)">
<mask id="mask2_11_115" style="mask-type:luminance" maskUnits="userSpaceOnUse" x="272" y="367" width="8" height="9">
<path d="M272.156 367.448L279.734 367.443L279.74 375.021L272.161 375.026L272.156 367.448Z" fill="white"/>
</mask>
<g mask="url(#mask2_11_115)">
<mask id="mask3_11_115" style="mask-type:luminance" maskUnits="userSpaceOnUse" x="272" y="367" width="8" height="9">
<path d="M275.943 367.443C273.849 367.448 272.156 369.146 272.156 371.24C272.156 373.328 273.854 375.026 275.948 375.026C278.042 375.021 279.74 373.323 279.734 371.234C279.734 369.141 278.036 367.443 275.943 367.443Z" fill="white"/>
</mask>
<g mask="url(#mask3_11_115)">
<path d="M272.156 367.448L279.734 367.443L279.74 375.021L272.161 375.026L272.156 367.448Z" fill="#1D1D1B"/>
</g>
</g>
</g>
<mask id="mask4_11_115" style="mask-type:luminance" maskUnits="userSpaceOnUse" x="98" y="356" width="9" height="10">
<path d="M98.6667 356H106.667V365.333H98.6667V356Z" fill="white"/>
</mask>
<g mask="url(#mask4_11_115)">
<mask id="mask5_11_115" style="mask-type:luminance" maskUnits="userSpaceOnUse" x="99" y="357" width="8" height="8">
<path d="M99.0573 357.182L106.641 357.177L106.646 364.755L99.0625 364.76L99.0573 357.182Z" fill="white"/>
</mask>
<g mask="url(#mask5_11_115)">
<mask id="mask6_11_115" style="mask-type:luminance" maskUnits="userSpaceOnUse" x="99" y="357" width="8" height="8">
<path d="M102.849 357.177C100.755 357.182 99.0625 358.88 99.0625 360.969C99.0625 363.063 100.76 364.76 102.854 364.76C104.948 364.755 106.646 363.057 106.641 360.964C106.641 358.875 104.943 357.177 102.849 357.177Z" fill="white"/>
</mask>
<g mask="url(#mask6_11_115)">
<path d="M99.0573 357.182L106.641 357.177L106.646 364.755L99.0625 364.76L99.0573 357.182Z" fill="#1D1D1B"/>
</g>
</g>
</g>
</svg>
