<svg xmlns="http://www.w3.org/2000/svg" xmlns:xlink="http://www.w3.org/1999/xlink" width="500" zoomAndPan="magnify" viewBox="0 0 375 374.999991" height="500" preserveAspectRatio="xMidYMid meet" version="1.0"><defs><g/><clipPath id="f47dbfd796"><path d="M 234 314 L 240 314 L 240 321 L 234 321 Z M 234 314 " clip-rule="nonzero"/></clipPath><clipPath id="5a8942edb1"><path d="M 234.117188 314.585938 L 239.800781 314.582031 L 239.804688 320.265625 L 234.121094 320.269531 Z M 234.117188 314.585938 " clip-rule="nonzero"/></clipPath><clipPath id="02dce8428d"><path d="M 236.957031 314.582031 C 235.386719 314.585938 234.117188 315.859375 234.117188 317.429688 C 234.117188 318.996094 235.390625 320.269531 236.960938 320.269531 C 238.53125 320.265625 239.804688 318.992188 239.800781 317.425781 C 239.800781 315.855469 238.527344 314.582031 236.957031 314.582031 Z M 236.957031 314.582031 " clip-rule="nonzero"/></clipPath><clipPath id="571e84ce07"><path d="M 104 306 L 110 306 L 110 313 L 104 313 Z M 104 306 " clip-rule="nonzero"/></clipPath><clipPath id="9bb4723ee4"><path d="M 104.292969 306.886719 L 109.980469 306.882812 L 109.984375 312.566406 L 104.296875 312.570312 Z M 104.292969 306.886719 " clip-rule="nonzero"/></clipPath><clipPath id="42f66f194b"><path d="M 107.136719 306.882812 C 105.566406 306.886719 104.296875 308.160156 104.296875 309.726562 C 104.296875 311.296875 105.570312 312.570312 107.140625 312.570312 C 108.710938 312.566406 109.984375 311.292969 109.980469 309.722656 C 109.980469 308.15625 108.707031 306.882812 107.136719 306.882812 Z M 107.136719 306.882812 " clip-rule="nonzero"/></clipPath><clipPath id="811a55200f"><path d="M 131 39.53125 L 224 39.53125 L 224 249 L 131 249 Z M 131 39.53125 " clip-rule="nonzero"/></clipPath></defs><rect x="-37.5" width="450" fill="#ffffff" y="-37.499999" height="449.999989" fill-opacity="1"/><rect x="-37.5" width="450" fill="#fff6f6" y="-37.499999" height="449.999989" fill-opacity="1"/><g fill="#1d1d1b" fill-opacity="1"><g transform="translate(28.000611, 277.686509)"><g><path d="M 15.296875 8.0625 L 14.296875 9.5625 L 2.671875 1.78125 L 13.65625 -14.671875 L 24.9375 -7.125 L 23.9375 -5.609375 L 14.40625 -11.984375 L 10.5 -6.140625 L 19 -0.46875 L 18.015625 1.015625 L 9.515625 -4.65625 L 5.421875 1.453125 Z M 15.296875 8.0625 "/></g></g></g><g fill="#1d1d1b" fill-opacity="1"><g transform="translate(51.77834, 293.017408)"><g><path d="M 16.296875 2.578125 L 6.53125 -2.53125 L 1.984375 1.03125 L 0.0625 0.03125 L 17.234375 -13.296875 L 19.0625 -12.34375 L 17.890625 9.375 L 15.9375 8.359375 Z M 16.40625 0.703125 L 17.125 -10.890625 L 8.015625 -3.6875 Z M 16.40625 0.703125 "/></g></g></g><g fill="#1d1d1b" fill-opacity="1"><g transform="translate(78.253801, 306.247715)"><g><path d="M 13.234375 -14.046875 L 6.78125 -16.625 L 7.46875 -18.3125 L 22.328125 -12.359375 L 21.640625 -10.671875 L 15.1875 -13.265625 L 8.5 3.40625 L 6.546875 2.625 Z M 13.234375 -14.046875 "/></g></g></g><g fill="#1d1d1b" fill-opacity="1"><g transform="translate(101.964162, 315.201152)"><g/></g></g><g fill="#1d1d1b" fill-opacity="1"><g transform="translate(117.846558, 320.077041)"><g><path d="M 11.5 2.75 C 9.582031 2.320312 7.953125 1.515625 6.609375 0.328125 C 5.265625 -0.859375 4.320312 -2.296875 3.78125 -3.984375 C 3.238281 -5.679688 3.175781 -7.460938 3.59375 -9.328125 C 4.007812 -11.171875 4.820312 -12.742188 6.03125 -14.046875 C 7.25 -15.359375 8.722656 -16.257812 10.453125 -16.75 C 12.179688 -17.25 14.003906 -17.285156 15.921875 -16.859375 C 17.347656 -16.546875 18.613281 -16.015625 19.71875 -15.265625 C 20.820312 -14.515625 21.695312 -13.585938 22.34375 -12.484375 L 20.75 -11.484375 C 19.582031 -13.335938 17.851562 -14.523438 15.5625 -15.046875 C 14.03125 -15.378906 12.5625 -15.335938 11.15625 -14.921875 C 9.75 -14.503906 8.554688 -13.769531 7.578125 -12.71875 C 6.609375 -11.664062 5.953125 -10.390625 5.609375 -8.890625 C 5.273438 -7.378906 5.320312 -5.9375 5.75 -4.5625 C 6.1875 -3.1875 6.953125 -2.003906 8.046875 -1.015625 C 9.140625 -0.0351562 10.453125 0.617188 11.984375 0.953125 C 14.296875 1.472656 16.367188 1.125 18.203125 -0.09375 L 19.203125 1.5 C 18.160156 2.21875 16.972656 2.6875 15.640625 2.90625 C 14.304688 3.125 12.925781 3.070312 11.5 2.75 Z M 11.5 2.75 "/></g></g></g><g fill="#1d1d1b" fill-opacity="1"><g transform="translate(146.961648, 326.070197)"><g><path d="M 16.125 -3.515625 L 5.171875 -4.734375 L 2.21875 0.25 L 0.0625 0 L 11.234375 -18.640625 L 13.296875 -18.421875 L 20.078125 2.25 L 17.890625 2 Z M 15.546875 -5.28125 L 12 -16.359375 L 6.125 -6.34375 Z M 15.546875 -5.28125 "/></g></g></g><g fill="#1d1d1b" fill-opacity="1"><g transform="translate(176.495574, 328.856581)"><g><path d="M 9.375 -9.265625 L 5.328125 -5.1875 L 5.3125 0.015625 L 3.21875 0.015625 L 3.28125 -19.765625 L 5.375 -19.765625 L 5.328125 -7.8125 L 16.984375 -19.734375 L 19.390625 -19.71875 L 10.796875 -10.78125 L 19.921875 0.0625 L 17.4375 0.046875 Z M 9.375 -9.265625 "/></g></g></g><g fill="#1d1d1b" fill-opacity="1"><g transform="translate(205.964114, 328.416242)"><g><path d="M 16.921875 -3.5625 L 17.109375 -1.765625 L 3.203125 -0.328125 L 1.171875 -20 L 14.65625 -21.390625 L 14.84375 -19.59375 L 3.4375 -18.421875 L 4.15625 -11.421875 L 14.328125 -12.46875 L 14.515625 -10.703125 L 4.34375 -9.65625 L 5.09375 -2.34375 Z M 16.921875 -3.5625 "/></g></g></g><g fill="#1d1d1b" fill-opacity="1"><g transform="translate(233.816147, 324.926015)"><g/></g></g><g fill="#1d1d1b" fill-opacity="1"><g transform="translate(250.05105, 321.713171)"><g><path d="M -2.015625 -19.9375 L 0 -20.484375 L 4.65625 -3.125 L 15.359375 -6 L 15.828125 -4.25 L 3.109375 -0.828125 Z M -2.015625 -19.9375 "/></g></g></g><g fill="#1d1d1b" fill-opacity="1"><g transform="translate(275.132612, 314.64471)"><g><path d="M 11.109375 -4.140625 C 9.285156 -3.429688 7.472656 -3.191406 5.671875 -3.421875 C 3.878906 -3.660156 2.289062 -4.328125 0.90625 -5.421875 C -0.476562 -6.523438 -1.515625 -7.96875 -2.203125 -9.75 C -2.890625 -11.519531 -3.09375 -13.273438 -2.8125 -15.015625 C -2.539062 -16.765625 -1.820312 -18.332031 -0.65625 -19.71875 C 0.507812 -21.113281 2.003906 -22.164062 3.828125 -22.875 C 5.660156 -23.582031 7.460938 -23.820312 9.234375 -23.59375 C 11.015625 -23.363281 12.601562 -22.695312 14 -21.59375 C 15.40625 -20.488281 16.453125 -19.050781 17.140625 -17.28125 C 17.828125 -15.5 18.023438 -13.726562 17.734375 -11.96875 C 17.453125 -10.207031 16.734375 -8.640625 15.578125 -7.265625 C 14.429688 -5.890625 12.941406 -4.847656 11.109375 -4.140625 Z M 10.4375 -5.875 C 11.894531 -6.4375 13.085938 -7.273438 14.015625 -8.390625 C 14.941406 -9.503906 15.503906 -10.773438 15.703125 -12.203125 C 15.910156 -13.640625 15.738281 -15.078125 15.1875 -16.515625 C 14.625 -17.953125 13.785156 -19.125 12.671875 -20.03125 C 11.554688 -20.945312 10.28125 -21.5 8.84375 -21.6875 C 7.40625 -21.882812 5.957031 -21.703125 4.5 -21.140625 C 3.050781 -20.578125 1.859375 -19.738281 0.921875 -18.625 C -0.00390625 -17.507812 -0.578125 -16.234375 -0.796875 -14.796875 C -1.015625 -13.367188 -0.84375 -11.9375 -0.28125 -10.5 C 0.269531 -9.0625 1.109375 -7.882812 2.234375 -6.96875 C 3.367188 -6.0625 4.65625 -5.507812 6.09375 -5.3125 C 7.539062 -5.125 8.988281 -5.3125 10.4375 -5.875 Z M 10.4375 -5.875 "/></g></g></g><g fill="#1d1d1b" fill-opacity="1"><g transform="translate(305.794022, 302.023132)"><g><path d="M 8.171875 -26.671875 L 9.640625 -5.078125 L 7.828125 -4.125 L -9.15625 -17.53125 L -7.140625 -18.59375 L 7.578125 -6.921875 L 6.296875 -25.6875 Z M 8.171875 -26.671875 "/></g></g></g><g fill="#1d1d1b" fill-opacity="1"><g transform="translate(331.291743, 288.001531)"><g><path d="M 13.28125 -11.078125 L 14.296875 -9.578125 L 2.671875 -1.796875 L -8.34375 -18.234375 L 2.921875 -25.78125 L 3.9375 -24.265625 L -5.59375 -17.875 L -1.6875 -12.046875 L 6.8125 -17.734375 L 7.8125 -16.25 L -0.6875 -10.5625 L 3.390625 -4.453125 Z M 13.28125 -11.078125 "/></g></g></g><g clip-path="url(#f47dbfd796)"><g clip-path="url(#5a8942edb1)"><g clip-path="url(#02dce8428d)"><path fill="#1d1d1b" d="M 234.117188 314.585938 L 239.800781 314.582031 L 239.804688 320.265625 L 234.121094 320.269531 Z M 234.117188 314.585938 " fill-opacity="1" fill-rule="nonzero"/></g></g></g><g clip-path="url(#571e84ce07)"><g clip-path="url(#9bb4723ee4)"><g clip-path="url(#42f66f194b)"><path fill="#1d1d1b" d="M 104.292969 306.886719 L 109.980469 306.882812 L 109.984375 312.566406 L 104.296875 312.570312 Z M 104.292969 306.886719 " fill-opacity="1" fill-rule="nonzero"/></g></g></g><path fill="#000000" d="M 195.050781 114.40625 C 193.503906 113.210938 191.816406 112.195312 190.027344 111.410156 C 189.441406 111.15625 188.933594 112.011719 189.523438 112.28125 C 195.625 114.960938 200.433594 120.246094 202.621094 126.527344 C 203.246094 128.324219 203.667969 130.175781 203.835938 132.078125 C 203.886719 132.71875 204.898438 132.71875 204.847656 132.078125 C 204.1875 125.128906 200.550781 118.648438 195.050781 114.40625 Z M 195.050781 114.40625 " fill-opacity="1" fill-rule="nonzero"/><g clip-path="url(#811a55200f)"><path fill="#000000" d="M 215.996094 120.664062 C 210.007812 113.660156 201.222656 110.359375 192.339844 108.699219 C 192.4375 106.914062 191.171875 105.527344 189.621094 104.742188 C 189.355469 104.605469 189.066406 104.488281 188.78125 104.371094 C 196.871094 95.007812 204.949219 85.664062 213.042969 76.308594 C 214.910156 74.15625 216.921875 72.050781 218.574219 69.710938 C 219.921875 67.789062 220.949219 65.550781 220.796875 63.144531 C 220.664062 61.105469 219.75 59.054688 217.914062 58.027344 C 215.773438 56.832031 212.703125 57.40625 211.085938 55.351562 C 210.210938 54.242188 210.445312 52.910156 211.828125 52.40625 C 212.992188 51.984375 214.257812 52.019531 215.421875 51.582031 C 217.761719 50.703125 219.613281 48.800781 220.390625 46.429688 C 220.527344 46.023438 220.125 45.753906 219.769531 45.808594 C 216.179688 46.429688 212.972656 44.003906 210.058594 42.320312 C 208.574219 41.464844 207.023438 40.65625 205.335938 40.25 C 203.71875 39.863281 202.050781 39.84375 200.414062 40.132812 C 197.125 40.722656 194.109375 42.65625 192.300781 45.488281 C 191.292969 47.085938 190.5 49.1875 188.542969 49.847656 C 187.734375 50.117188 186.820312 50.0625 186.199219 49.421875 C 185.691406 48.90625 185.574219 48.148438 185.542969 47.457031 C 185.476562 45.90625 185.796875 44.289062 185.273438 42.792969 C 184.769531 41.347656 183.515625 40.417969 182.085938 39.96875 C 178.949219 38.972656 175.222656 39.832031 172.289062 41.058594 C 169.152344 42.375 166.339844 44.441406 164.183594 47.070312 C 163.101562 48.398438 162.171875 49.847656 161.464844 51.410156 C 160.742188 53.042969 160.304688 54.761719 159.730469 56.445312 C 159.15625 58.125 158.378906 59.8125 156.914062 60.90625 C 155.445312 62 153.589844 62.335938 151.789062 62.320312 C 147.671875 62.285156 143.8125 60.386719 139.679688 60.519531 C 138.652344 60.550781 137.660156 60.71875 136.679688 61.054688 C 136.34375 61.175781 136.242188 61.480469 136.378906 61.800781 C 139.207031 68.460938 142.78125 74.824219 147.019531 80.71875 C 151.246094 86.625 156.105469 92.066406 161.519531 96.929688 C 164.164062 99.320312 166.960938 101.539062 169.847656 103.628906 C 169.375 103.828125 168.933594 104.101562 168.578125 104.507812 C 168.042969 105.128906 167.789062 105.917969 167.957031 106.710938 C 160.015625 107.164062 152.140625 108.507812 145.179688 112.570312 C 140.925781 115.042969 137.171875 118.492188 134.757812 122.820312 C 132.148438 127.515625 131.300781 132.9375 131.605469 138.257812 C 131.925781 143.828125 133.394531 149.28125 135.199219 154.550781 C 137.105469 160.121094 139.34375 165.574219 141.636719 170.996094 C 146.308594 182.070312 151.519531 192.929688 157.234375 203.515625 C 160.066406 208.769531 163.035156 213.957031 166.117188 219.070312 C 167.683594 221.660156 169.460938 224.097656 171.074219 226.636719 C 174.121094 231.847656 176.453125 237.976562 178.664062 243.5 C 179.390625 245.316406 180.101562 247.066406 180.820312 248.695312 C 181.007812 249.121094 181.613281 248.949219 181.746094 248.578125 C 181.859375 247.3125 182.3125 245.59375 183.066406 243.5 C 184.386719 239.835938 186.625 235.027344 189.566406 229.523438 C 192.378906 225.398438 194.191406 221.222656 196.90625 217.03125 C 203.535156 206.816406 209.703125 196.261719 214.460938 185.035156 C 219.058594 174.144531 222.351562 162.632812 223.242188 150.796875 C 224.101562 140.410156 223.054688 128.914062 215.996094 120.664062 Z M 155.480469 89.488281 C 150.605469 84.167969 146.308594 78.347656 142.703125 72.097656 C 140.777344 68.800781 139.078125 65.367188 137.554688 61.863281 C 141.554688 60.773438 145.617188 62.605469 149.578125 63.144531 C 152.984375 63.597656 156.746094 63.210938 158.972656 60.300781 C 160.03125 58.902344 160.605469 57.203125 161.128906 55.535156 C 161.667969 53.816406 162.191406 52.136719 163.066406 50.554688 C 164.753906 47.519531 167.28125 44.984375 170.265625 43.210938 C 173.164062 41.511719 176.757812 40.335938 180.144531 40.621094 C 181.679688 40.757812 183.449219 41.296875 184.195312 42.761719 C 184.917969 44.191406 184.496094 45.9375 184.582031 47.472656 C 184.648438 48.867188 185.136719 50.285156 186.554688 50.820312 C 188.121094 51.429688 189.910156 50.605469 190.96875 49.441406 C 192.253906 48.027344 192.910156 46.160156 194.175781 44.726562 C 195.304688 43.453125 196.753906 42.441406 198.339844 41.800781 C 199.890625 41.175781 201.5625 40.875 203.226562 40.957031 C 205.015625 41.042969 206.667969 41.648438 208.238281 42.457031 C 211.273438 44.023438 214.140625 46.414062 217.628906 46.851562 C 218.132812 46.917969 218.65625 46.917969 219.164062 46.867188 C 218.300781 48.734375 216.648438 50.199219 214.660156 50.769531 C 212.890625 51.277344 210.089844 51.109375 209.582031 53.429688 C 209.113281 55.652344 211.421875 57.289062 213.277344 57.757812 C 214.527344 58.078125 215.839844 58.164062 217.019531 58.6875 C 218.03125 59.136719 218.808594 59.929688 219.261719 60.9375 C 221.585938 65.988281 216.53125 70.738281 213.566406 74.171875 C 209.515625 78.832031 205.488281 83.511719 201.4375 88.175781 C 196.90625 93.410156 192.386719 98.648438 187.851562 103.898438 C 187.832031 103.914062 187.832031 103.945312 187.820312 103.964844 C 186.5 103.492188 185.121094 103.175781 183.738281 102.988281 C 181.699219 102.703125 179.640625 102.667969 177.601562 102.734375 C 175.527344 102.820312 173.417969 102.925781 171.363281 103.226562 C 171.296875 103.238281 171.230469 103.257812 171.160156 103.257812 C 165.460938 99.25 160.199219 94.621094 155.480469 89.488281 Z M 170.484375 104.453125 C 171.5 104.101562 172.710938 104.082031 173.773438 104 C 175.933594 103.8125 178.109375 103.679688 180.28125 103.730469 C 182.4375 103.78125 184.613281 104.03125 186.691406 104.65625 C 188.425781 105.175781 191.496094 106.238281 191.359375 108.507812 C 189.675781 108.222656 187.988281 107.972656 186.316406 107.769531 C 185.1875 107.632812 184.039062 107.554688 182.914062 107.429688 C 181.863281 107.3125 180.839844 106.980469 179.792969 106.84375 C 177.652344 106.558594 175.496094 106.523438 173.351562 106.523438 C 172.929688 106.523438 169.054688 106.757812 169.019531 106.640625 C 168.699219 105.613281 169.578125 104.773438 170.484375 104.453125 Z M 216.648438 176.820312 C 212.753906 187.949219 207.277344 198.429688 201.171875 208.5 C 197.277344 214.914062 193.324219 221.300781 189.566406 227.792969 C 188.636719 229.402344 184.507812 237.246094 182.300781 242.257812 C 181.460938 244.167969 180.898438 245.667969 180.898438 246.253906 C 180.898438 246.0625 180.265625 244.480469 179.316406 242.257812 C 177.402344 237.761719 174.195312 230.636719 172.324219 227.050781 C 171.832031 226.277344 170.859375 224.746094 170.859375 224.746094 C 167.738281 219.796875 164.738281 214.761719 161.851562 209.675781 C 156.117188 199.5625 150.859375 189.175781 146.085938 178.585938 C 143.695312 173.25 141.417969 167.863281 139.261719 162.429688 C 137.222656 157.257812 135.25 152.039062 133.949219 146.621094 C 132.703125 141.402344 132.078125 135.898438 133.074219 130.59375 C 134.015625 125.59375 136.460938 121.082031 140.136719 117.582031 C 148.109375 109.992188 159.410156 108.003906 170.03125 107.601562 C 172.019531 107.515625 174.007812 107.515625 175.984375 107.652344 C 177.855469 107.789062 179.695312 108.15625 181.5625 108.324219 C 185.121094 108.644531 188.660156 109.050781 192.167969 109.6875 C 198.40625 110.851562 204.558594 112.851562 209.804688 116.503906 C 214.050781 119.453125 217.375 123.441406 219.429688 128.171875 C 221.507812 132.9375 222.316406 138.207031 222.46875 143.371094 C 222.839844 154.714844 220.390625 166.128906 216.648438 176.820312 Z M 216.648438 176.820312 " fill-opacity="1" fill-rule="nonzero"/></g><path fill="#000000" d="M 168.480469 110.515625 C 163.539062 111.679688 159.242188 115.007812 156.914062 119.503906 C 156.609375 120.074219 157.488281 120.582031 157.789062 120.007812 C 160 115.734375 164.066406 112.570312 168.75 111.476562 C 169.375 111.324219 169.121094 110.363281 168.480469 110.515625 Z M 168.480469 110.515625 " fill-opacity="1" fill-rule="nonzero"/><path fill="#000000" d="M 175.699219 111.492188 C 168.699219 117.972656 165.105469 127.738281 165.851562 137.199219 C 166.070312 139.871094 166.625 142.53125 167.535156 145.058594 C 167.757812 145.664062 168.734375 145.394531 168.515625 144.789062 C 165.347656 136.066406 166.59375 126.050781 171.464844 118.210938 C 172.832031 115.988281 174.503906 113.96875 176.421875 112.195312 C 176.894531 111.761719 176.167969 111.050781 175.699219 111.492188 Z M 175.699219 111.492188 " fill-opacity="1" fill-rule="nonzero"/><path fill="#000000" d="M 182.355469 114.589844 C 182.40625 113.949219 181.414062 113.949219 181.347656 114.589844 C 181.058594 118.023438 181.109375 121.472656 181.53125 124.90625 C 181.597656 125.546875 182.609375 125.546875 182.542969 124.90625 C 182.136719 121.472656 182.066406 118.023438 182.355469 114.589844 Z M 182.355469 114.589844 " fill-opacity="1" fill-rule="nonzero"/><path fill="#000000" d="M 188.054688 112.46875 C 187.71875 111.914062 186.839844 112.417969 187.179688 112.972656 C 189.238281 116.289062 190.347656 120.113281 190.382812 124.015625 C 190.382812 124.65625 191.394531 124.65625 191.394531 124.015625 C 191.34375 119.941406 190.199219 115.9375 188.054688 112.46875 Z M 188.054688 112.46875 " fill-opacity="1" fill-rule="nonzero"/><path fill="#000000" d="M 190.046875 66.917969 C 185.542969 75.398438 182.609375 84.625 181.347656 94.117188 C 181.261719 94.757812 182.269531 94.757812 182.355469 94.117188 C 183.601562 84.792969 186.519531 75.71875 190.921875 67.421875 C 191.222656 66.851562 190.347656 66.34375 190.046875 66.917969 Z M 190.046875 66.917969 " fill-opacity="1" fill-rule="nonzero"/><path fill="#000000" d="M 175.527344 97.367188 C 170.742188 92.402344 167.265625 86.257812 165.480469 79.609375 C 165.3125 78.988281 164.335938 79.257812 164.503906 79.878906 C 166.339844 86.695312 169.898438 92.992188 174.804688 98.09375 C 175.273438 98.550781 175.984375 97.839844 175.527344 97.367188 Z M 175.527344 97.367188 " fill-opacity="1" fill-rule="nonzero"/><path fill="#000000" d="M 178.195312 94.222656 C 177.011719 91.59375 176.167969 88.816406 175.648438 85.988281 C 175.527344 85.351562 174.570312 85.617188 174.667969 86.257812 C 175.207031 89.1875 176.101562 92.015625 177.316406 94.742188 C 177.585938 95.3125 178.460938 94.808594 178.195312 94.222656 Z M 178.195312 94.222656 " fill-opacity="1" fill-rule="nonzero"/><path fill="#000000" d="M 191.863281 87.402344 C 189.238281 90.46875 187.078125 93.902344 185.457031 97.601562 C 185.207031 98.191406 186.066406 98.699219 186.335938 98.109375 C 187.90625 94.488281 190.015625 91.109375 192.574219 88.109375 C 192.996094 87.625 192.289062 86.917969 191.863281 87.402344 Z M 191.863281 87.402344 " fill-opacity="1" fill-rule="nonzero"/><path fill="#000000" d="M 129.28125 203.253906 C 127.105469 195.257812 123.972656 187.5625 120.917969 179.867188 C 120.058594 177.683594 119.199219 175.492188 118.355469 173.304688 C 117.109375 169.96875 115.910156 166.605469 114.882812 163.207031 C 114.359375 161.507812 113.886719 159.789062 113.464844 158.054688 C 113.292969 157.34375 113.011719 156.671875 112.855469 155.984375 C 112.671875 155.105469 112.554688 154.230469 112.351562 153.355469 C 112.25 152.917969 112.167969 152.484375 112.167969 152.027344 C 112.167969 150.222656 112.488281 148.371094 112.640625 146.574219 C 112.808594 144.722656 112.972656 142.867188 113.144531 141.015625 C 113.484375 137.316406 113.820312 133.628906 114.15625 129.925781 C 114.828125 122.535156 115.507812 115.125 116.179688 107.738281 C 116.839844 100.453125 117.578125 93.175781 118.121094 85.886719 C 118.65625 78.6875 118.929688 71.449219 118.355469 64.242188 C 118.066406 60.6875 117.578125 57.15625 116.820312 53.671875 C 116.347656 51.480469 115.304688 48.570312 112.640625 48.453125 C 110.261719 48.351562 108.964844 50.839844 108.375 52.777344 C 107.953125 54.207031 107.820312 55.707031 107.632812 57.171875 C 107.394531 58.972656 107.191406 60.773438 107.023438 62.574219 C 105.523438 77.300781 105.507812 92.167969 106.265625 106.945312 C 106.300781 107.566406 106.332031 108.195312 106.363281 108.832031 C 106.769531 116.203125 107.363281 123.558594 108.054688 130.914062 C 108.390625 134.589844 108.761719 138.277344 109.148438 141.945312 C 109.335938 143.777344 109.539062 145.613281 109.738281 147.449219 C 109.925781 149.097656 110.3125 150.816406 109.910156 152.445312 C 109.6875 153.339844 109.199219 154.144531 108.8125 154.988281 C 105.761719 161.636719 103.011719 168.417969 99.890625 175.039062 C 96.234375 182.78125 92.40625 190.457031 89.003906 198.316406 C 85.832031 205.660156 83.101562 213.484375 82.996094 221.601562 C 82.914062 228.53125 84.988281 235.316406 89.269531 240.804688 C 93.164062 245.804688 99.285156 247.386719 105.625 248.316406 C 111.8125 249.21875 118.066406 249.035156 123.023438 245.164062 C 128.6875 240.738281 130.964844 234.441406 131.742188 227.523438 C 132.632812 219.378906 131.421875 211.128906 129.28125 203.253906 Z M 107.683594 113.378906 C 106.753906 99 106.449219 84.578125 107.429688 70.199219 C 107.664062 66.664062 107.984375 63.144531 108.390625 59.648438 C 108.589844 57.914062 108.761719 56.144531 109.066406 54.410156 C 109.269531 53.234375 109.636719 52.054688 110.261719 51.023438 C 110.816406 50.132812 111.695312 49.34375 112.824219 49.480469 C 114.105469 49.628906 114.867188 50.828125 115.304688 51.917969 C 115.839844 53.265625 116.082031 54.75 116.332031 56.175781 C 116.652344 57.894531 116.90625 59.628906 117.109375 61.378906 C 118.707031 75.449219 116.851562 89.710938 115.574219 103.75 C 114.257812 118.277344 112.925781 132.804688 111.609375 147.332031 C 111.492188 148.726562 111.359375 150.105469 111.242188 151.503906 C 109.839844 138.8125 108.507812 126.121094 107.683594 113.378906 Z M 91.96875 242.371094 C 87.214844 237.894531 85.070312 232.605469 84.261719 226.160156 C 83.269531 218.300781 85.308594 210.453125 88.109375 203.164062 C 91.09375 195.441406 94.882812 188 98.441406 180.507812 C 101.191406 174.703125 103.941406 168.894531 106.671875 163.101562 C 102.875 172.480469 99.707031 182.125 97.246094 191.9375 C 95.441406 199.140625 93.804688 206.484375 93.164062 213.886719 C 92.574219 220.722656 93.027344 227.757812 95.691406 234.15625 C 97.9375 239.542969 101.796875 244.796875 107.160156 247.402344 C 107.449219 247.558594 107.75 247.675781 108.070312 247.792969 C 102.40625 247.402344 95.964844 246.140625 91.96875 242.371094 Z M 107.09375 246.242188 C 105.777344 245.519531 104.546875 244.609375 103.433594 243.617188 C 101.289062 241.699219 99.519531 239.410156 98.121094 236.882812 C 91.226562 224.457031 94.226562 209.414062 97.226562 196.296875 C 100.210938 183.285156 104.429688 170.542969 109.753906 158.304688 C 107.007812 169.046875 105.253906 180.035156 104.515625 191.113281 C 103.71875 203.164062 104.125 215.304688 105.726562 227.269531 C 106.617188 233.984375 107.898438 240.652344 109.550781 247.21875 C 108.695312 247.035156 107.867188 246.664062 107.09375 246.242188 Z M 110.71875 227.707031 C 110.632812 233.90625 110.53125 240.117188 110.394531 246.308594 C 107.566406 234.847656 105.859375 223.128906 105.320312 211.328125 C 104.78125 199.3125 105.421875 187.222656 107.277344 175.339844 C 108.085938 170.191406 109.113281 165.089844 110.363281 160.023438 C 110.597656 170.542969 110.765625 181.082031 110.816406 191.621094 C 110.902344 203.652344 110.851562 215.691406 110.71875 227.707031 Z M 111.375 247.335938 C 111.628906 235.535156 111.796875 223.738281 111.84375 211.9375 C 111.894531 199.898438 111.84375 187.882812 111.660156 175.847656 C 111.609375 171.804688 111.523438 167.765625 111.445312 163.742188 C 111.375 160.746094 111.003906 157.582031 111.777344 154.652344 C 112.066406 156.539062 112.03125 158.492188 112.269531 160.394531 C 112.386719 161.402344 112.535156 162.394531 112.691406 163.40625 C 112.84375 164.351562 113.246094 165.441406 113.246094 166.402344 C 114.003906 170.171875 115 173.878906 116.0625 177.578125 C 117.121094 181.265625 118.25 184.933594 119.316406 188.640625 C 119.453125 189.109375 119.589844 189.601562 119.71875 190.070312 C 121.542969 196.617188 123.011719 203.265625 123.3125 210.066406 C 123.597656 216.953125 122.808594 223.871094 120.988281 230.503906 C 120.09375 233.769531 118.945312 236.964844 117.546875 240.046875 C 116.886719 241.496094 116.214844 242.976562 115.371094 244.320312 C 114.59375 245.550781 113.566406 246.765625 112.117188 247.21875 C 111.882812 247.25 111.628906 247.304688 111.375 247.335938 Z M 125.992188 241.242188 C 122.789062 245.773438 118.269531 247.636719 112.992188 247.910156 C 113.9375 247.488281 114.730469 246.796875 115.390625 245.988281 C 116.332031 244.832031 117.003906 243.484375 117.648438 242.136719 C 118.40625 240.554688 119.113281 238.933594 119.753906 237.304688 C 122.300781 230.804688 123.800781 223.902344 124.238281 216.953125 C 124.675781 209.984375 123.902344 203.050781 122.351562 196.246094 C 119.707031 184.683594 115.101562 173.453125 113.429688 161.691406 C 114.59375 165.828125 116.011719 169.902344 117.546875 173.929688 C 120.378906 181.402344 123.546875 188.757812 126.109375 196.332031 C 128.6875 203.960938 130.699219 211.851562 130.980469 219.933594 C 131.253906 227.203125 130.308594 235.148438 125.992188 241.242188 Z M 125.992188 241.242188 " fill-opacity="1" fill-rule="nonzero"/><path fill="#000000" d="M 113.28125 53.214844 C 113.164062 53.179688 113.078125 53.199219 112.992188 53.214844 C 112.824219 53.011719 112.535156 52.945312 112.320312 53.214844 C 111.40625 54.359375 110.871094 55.707031 110.667969 57.15625 C 110.480469 58.484375 110.414062 60.164062 111.085938 61.394531 C 111.726562 62.542969 113.363281 63.078125 114.292969 61.949219 C 114.710938 61.429688 114.867188 60.773438 114.964844 60.132812 C 115.117188 59.292969 115.1875 58.417969 115.1875 57.554688 C 115.1875 55.992188 115.082031 53.753906 113.28125 53.214844 Z M 114.15625 58.367188 C 114.121094 59.105469 114.058594 62 112.671875 61.53125 C 111.375 61.09375 111.511719 58.902344 111.59375 57.828125 C 111.695312 56.515625 112.117188 55.203125 112.910156 54.125 C 112.941406 54.140625 112.972656 54.175781 113.011719 54.175781 C 113.769531 54.390625 113.988281 55.253906 114.070312 55.925781 C 114.1875 56.75 114.207031 57.554688 114.15625 58.367188 Z M 114.15625 58.367188 " fill-opacity="1" fill-rule="nonzero"/><path fill="#000000" d="M 292.101562 198.855469 C 291.445312 192.242188 288.648438 186.417969 284.9375 180.980469 C 281.308594 175.695312 277.097656 170.777344 274.058594 165.089844 C 272.445312 162.058594 271.277344 158.828125 270.707031 155.445312 C 270.046875 151.539062 270.152344 147.535156 270.550781 143.609375 C 271.378906 135.648438 273.164062 127.804688 274.097656 119.839844 C 275.058594 111.644531 275.5625 103.394531 275.578125 95.144531 C 275.59375 91.058594 275.496094 86.964844 275.273438 82.875 C 275.070312 78.96875 274.871094 75.03125 274.261719 71.175781 C 273.894531 68.734375 273.164062 66.3125 272.035156 64.125 C 271.480469 63.046875 270.804688 62.019531 270.015625 61.109375 C 269.289062 60.28125 268.394531 59.308594 267.332031 58.972656 C 266.894531 58.835938 266.476562 58.6875 266.019531 58.652344 C 265.007812 58.582031 264.046875 58.953125 263.203125 59.457031 C 259.109375 61.917969 257.011719 66.820312 256.15625 71.3125 C 255.414062 75.148438 255.078125 79.085938 254.722656 82.976562 C 254.351562 87.050781 254.097656 91.140625 253.960938 95.230469 C 253.695312 103.480469 253.878906 111.746094 254.554688 119.976562 C 255.195312 127.953125 256.691406 135.863281 257.214844 143.859375 C 257.46875 147.800781 257.4375 151.804688 256.644531 155.695312 C 255.953125 159.0625 254.671875 162.246094 252.9375 165.226562 C 249.714844 170.796875 245.296875 175.542969 241.488281 180.695312 C 237.574219 185.980469 234.574219 191.703125 233.664062 198.285156 C 232.734375 205.085938 233.851562 212.054688 236.242188 218.449219 C 238.066406 223.332031 240.675781 227.878906 243.761719 232.070312 C 246.847656 236.261719 250.402344 240.097656 254.164062 243.699219 C 255.078125 244.574219 256.039062 245.386719 256.949219 246.242188 C 257.839844 247.101562 258.9375 247.726562 260.035156 248.296875 C 260.335938 248.464844 260.65625 248.617188 260.996094 248.714844 C 261.703125 248.902344 262.460938 248.800781 263.152344 248.546875 C 264.855469 247.890625 266.339844 246.664062 267.722656 245.503906 C 269.257812 244.203125 270.722656 242.84375 272.191406 241.464844 C 275.964844 237.914062 279.523438 234.105469 282.5625 229.898438 C 285.019531 226.496094 287.144531 222.824219 288.761719 218.953125 C 291.410156 212.609375 292.777344 205.671875 292.101562 198.855469 Z M 285.542969 223.351562 C 284.261719 225.6875 282.796875 227.945312 281.191406 230.082031 C 278.496094 233.71875 275.390625 237.050781 272.125 240.167969 C 270.472656 241.730469 268.769531 243.246094 267.046875 244.726562 C 266.136719 245.503906 265.175781 246.289062 264.078125 246.765625 C 263.222656 247.132812 262.191406 247.757812 261.230469 247.707031 C 259.324219 247.621094 257.519531 245.417969 256.242188 244.242188 C 249.597656 238.0625 243.460938 231.144531 239.378906 222.980469 C 236.277344 216.78125 234.375 209.882812 234.40625 202.929688 C 234.441406 196.199219 236.53125 189.949219 240.1875 184.347656 C 243.628906 179.078125 247.945312 174.464844 251.535156 169.300781 C 253.257812 166.839844 254.789062 164.265625 255.933594 161.488281 C 257.300781 158.203125 258.027344 154.734375 258.28125 151.203125 C 258.835938 143.609375 257.351562 136.054688 256.4375 128.542969 C 255.484375 120.550781 254.957031 112.484375 254.890625 104.421875 C 254.824219 96.359375 255.195312 88.296875 256.019531 80.28125 C 256.710938 73.546875 257.066406 64.746094 263.355469 60.570312 C 268.042969 57.457031 271.601562 64.289062 272.648438 67.894531 C 273.808594 71.867188 273.910156 76.039062 274.175781 80.144531 C 274.699219 88.195312 274.785156 96.257812 274.417969 104.324219 C 274.046875 112.367188 273.234375 120.414062 271.96875 128.378906 C 270.789062 135.851562 269.035156 143.34375 269.304688 150.949219 C 269.441406 154.484375 270.03125 158.003906 271.277344 161.316406 C 272.324219 164.128906 273.773438 166.757812 275.390625 169.28125 C 278.800781 174.566406 282.945312 179.332031 286.1875 184.730469 C 289.640625 190.492188 291.496094 196.789062 291.273438 203.519531 C 291.019531 210.4375 288.863281 217.273438 285.542969 223.351562 Z M 285.542969 223.351562 " fill-opacity="1" fill-rule="nonzero"/><path fill="#000000" d="M 269.527344 77.726562 C 269.304688 75.824219 268.597656 71.429688 265.96875 71.527344 C 263.289062 71.632812 261.921875 74.574219 261.449219 76.796875 C 260.925781 79.222656 260.890625 82.320312 262.257812 84.492188 C 263.542969 86.527344 266.1875 87.167969 267.957031 85.367188 C 269.828125 83.5 269.792969 80.164062 269.527344 77.726562 Z M 268.074219 83.382812 C 267.722656 84.289062 267.011719 85.148438 266.039062 85.402344 C 265.039062 85.652344 264.046875 85.132812 263.421875 84.390625 C 262.074219 82.773438 262.007812 80.132812 262.242188 78.144531 C 262.492188 76.109375 263.335938 72.539062 265.933594 72.488281 C 265.984375 72.488281 266.019531 72.46875 266.050781 72.457031 C 267.585938 73.128906 268.074219 75.183594 268.363281 76.679688 C 268.75 78.804688 268.886719 81.359375 268.074219 83.382812 Z M 268.074219 83.382812 " fill-opacity="1" fill-rule="nonzero"/><path fill="#000000" d="M 280.601562 194.648438 C 269.976562 192.832031 259.15625 192.277344 248.417969 193.035156 C 245.398438 193.25 242.394531 193.570312 239.410156 193.992188 C 238.769531 194.074219 239.042969 195.054688 239.679688 194.96875 C 250.167969 193.503906 260.839844 193.316406 271.398438 194.394531 C 274.398438 194.699219 277.382812 195.121094 280.347656 195.625 C 280.976562 195.722656 281.242188 194.75 280.601562 194.648438 Z M 280.601562 194.648438 " fill-opacity="1" fill-rule="nonzero"/><path fill="#000000" d="M 190.625 226.8125 L 190.058594 227.761719 C 184.015625 227.234375 181.414062 225.429688 171.882812 227.433594 L 171.488281 226.445312 C 182.398438 224.148438 184.265625 226.234375 190.625 226.8125 Z M 190.625 226.8125 " fill-opacity="1" fill-rule="nonzero"/></svg>